<svg xmlns="http://www.w3.org/2000/svg" xmlns:xlink="http://www.w3.org/1999/xlink" width="500" zoomAndPan="magnify" viewBox="0 0 375 374.999991" height="500" preserveAspectRatio="xMidYMid meet" version="1.0"><defs><g/></defs><path stroke-linecap="butt" transform="matrix(0.75, 0, 0, 0.75, 7.249999, -56.572926)" fill="none" stroke-linejoin="miter" d="M 132.645843 503.977476 C 153.968761 504.628518 174.640638 498.602476 192.708347 488.02435 C 140.62501 495.998309 99.281258 444.73268 99.281258 379.300384 C 99.281258 326.081631 124.020843 281.321211 157.385428 270.743086 C 149.411469 268.628502 141.276052 267.97746 132.645843 267.97746 C 67.380214 267.97746 13.994794 320.706631 13.994794 385.977468 C 13.994794 451.404556 67.380214 503.977476 132.645843 503.977476 Z M 174.640638 368.722259 C 197.265639 368.722259 215.32814 350.654549 215.32814 328.034756 C 215.32814 306.060796 197.265639 287.342045 174.640638 287.342045 C 152.666678 287.342045 134.598968 306.060796 134.598968 328.034756 C 134.598968 350.654549 152.666678 368.722259 174.640638 368.722259 Z M 226.656266 495.998309 L 309.338563 495.998309 L 309.338563 144.602452 L 226.656266 144.602452 Z M 374.604192 495.998309 L 456.635448 495.998309 L 456.635448 348.701424 C 456.635448 283.925378 407.973986 244.050376 333.91669 283.274336 C 333.91669 283.274336 374.604192 279.368086 374.604192 322.008714 Z M 374.604192 495.998309 " stroke="#ffffff" stroke-width="10.833339" stroke-opacity="1" stroke-miterlimit="4"/><g fill="#000000" fill-opacity="1"><g transform="translate(7.249999, 315.42705)"><g><path d="M 99.5 6 C 115.5 6.5 131 2 144.5 -6 C 105.5 0 74.5 -38.5 74.5 -87.5 C 74.5 -127.5 93 -161 118 -169 C 112 -170.5 106 -171 99.5 -171 C 50.5 -171 10.5 -131.5 10.5 -82.5 C 10.5 -33.5 50.5 6 99.5 6 Z M 131 -95.5 C 148 -95.5 161.5 -109 161.5 -126 C 161.5 -142.5 148 -156.5 131 -156.5 C 114.5 -156.5 101 -142.5 101 -126 C 101 -109 114.5 -95.5 131 -95.5 Z M 131 -95.5 "/></g></g></g><g fill="#000000" fill-opacity="1"><g transform="translate(156.247944, 315.42705)"><g><path d="M 21 0 L 83 0 L 83 -263.496094 L 21 -263.496094 Z M 132 0 L 193.5 0 L 193.5 -110.5 C 193.5 -159 157 -189 101.5 -159.5 C 101.5 -159.5 132 -162.5 132 -130.5 Z M 132 0 "/></g></g></g></svg>